<svg width="299" height="53" viewBox="0 0 299 53" fill="none" xmlns="http://www.w3.org/2000/svg">
<path d="M51.376 29.168C51.376 27.376 51.7387 25.808 52.464 24.464C53.1893 23.0987 54.1813 22.0427 55.44 21.296C56.72 20.5493 58.1387 20.176 59.696 20.176C61.232 20.176 62.5653 20.5067 63.696 21.168C64.8267 21.8293 65.6693 22.6613 66.224 23.664V20.464H69.168V38H66.224V34.736C65.648 35.76 64.784 36.6133 63.632 37.296C62.5013 37.9573 61.1787 38.288 59.664 38.288C58.1067 38.288 56.6987 37.904 55.44 37.136C54.1813 36.368 53.1893 35.2907 52.464 33.904C51.7387 32.5173 51.376 30.9387 51.376 29.168ZM66.224 29.2C66.224 27.8773 65.9573 26.7253 65.424 25.744C64.8907 24.7627 64.1653 24.016 63.248 23.504C62.352 22.9707 61.36 22.704 60.272 22.704C59.184 22.704 58.192 22.96 57.296 23.472C56.4 23.984 55.6853 24.7307 55.152 25.712C54.6187 26.6933 54.352 27.8453 54.352 29.168C54.352 30.512 54.6187 31.6853 55.152 32.688C55.6853 33.6693 56.4 34.4267 57.296 34.96C58.192 35.472 59.184 35.728 60.272 35.728C61.36 35.728 62.352 35.472 63.248 34.96C64.1653 34.4267 64.8907 33.6693 65.424 32.688C65.9573 31.6853 66.224 30.5227 66.224 29.2ZM82.633 20.144C84.7663 20.144 86.4943 20.7947 87.817 22.096C89.1397 23.376 89.801 25.232 89.801 27.664V38H86.921V28.08C86.921 26.3307 86.4837 24.9973 85.609 24.08C84.7343 23.1413 83.5397 22.672 82.025 22.672C80.489 22.672 79.2623 23.152 78.345 24.112C77.449 25.072 77.001 26.4693 77.001 28.304V38H74.089V20.464H77.001V22.96C77.577 22.064 78.3557 21.3707 79.337 20.88C80.3397 20.3893 81.4383 20.144 82.633 20.144ZM110.11 20.464V38H107.198V35.408C106.643 36.304 105.864 37.008 104.862 37.52C103.88 38.0107 102.792 38.256 101.598 38.256C100.232 38.256 99.0058 37.9787 97.9178 37.424C96.8298 36.848 95.9658 35.9947 95.3258 34.864C94.7071 33.7333 94.3978 32.3573 94.3978 30.736V20.464H97.2778V30.352C97.2778 32.08 97.7151 33.4133 98.5898 34.352C99.4644 35.2693 100.659 35.728 102.174 35.728C103.731 35.728 104.958 35.248 105.854 34.288C106.75 33.328 107.198 31.9307 107.198 30.096V20.464H110.11ZM131.027 28.56C131.027 29.1147 130.995 29.7013 130.931 30.32H116.915C117.021 32.048 117.608 33.4027 118.675 34.384C119.763 35.344 121.075 35.824 122.611 35.824C123.869 35.824 124.915 35.536 125.747 34.96C126.6 34.3627 127.197 33.5733 127.539 32.592H130.675C130.205 34.2773 129.267 35.6533 127.859 36.72C126.451 37.7653 124.701 38.288 122.611 38.288C120.947 38.288 119.453 37.9147 118.131 37.168C116.829 36.4213 115.805 35.3653 115.059 34C114.312 32.6133 113.939 31.0133 113.939 29.2C113.939 27.3867 114.301 25.7973 115.027 24.432C115.752 23.0667 116.765 22.0213 118.067 21.296C119.389 20.5493 120.904 20.176 122.611 20.176C124.275 20.176 125.747 20.5387 127.027 21.264C128.307 21.9893 129.288 22.992 129.971 24.272C130.675 25.5307 131.027 26.96 131.027 28.56ZM128.019 27.952C128.019 26.8427 127.773 25.8933 127.283 25.104C126.792 24.2933 126.12 23.6853 125.267 23.28C124.435 22.8533 123.507 22.64 122.483 22.64C121.011 22.64 119.752 23.1093 118.707 24.048C117.683 24.9867 117.096 26.288 116.947 27.952H128.019ZM137.782 14.32V38H134.87V14.32H137.782ZM145.657 14.32V38H142.745V14.32H145.657ZM149.532 29.168C149.532 27.376 149.895 25.808 150.62 24.464C151.346 23.0987 152.338 22.0427 153.596 21.296C154.876 20.5493 156.295 20.176 157.852 20.176C159.388 20.176 160.722 20.5067 161.852 21.168C162.983 21.8293 163.826 22.6613 164.38 23.664V20.464H167.324V38H164.38V34.736C163.804 35.76 162.94 36.6133 161.788 37.296C160.658 37.9573 159.335 38.288 157.82 38.288C156.263 38.288 154.855 37.904 153.596 37.136C152.338 36.368 151.346 35.2907 150.62 33.904C149.895 32.5173 149.532 30.9387 149.532 29.168ZM164.38 29.2C164.38 27.8773 164.114 26.7253 163.58 25.744C163.047 24.7627 162.322 24.016 161.404 23.504C160.508 22.9707 159.516 22.704 158.428 22.704C157.34 22.704 156.348 22.96 155.452 23.472C154.556 23.984 153.842 24.7307 153.308 25.712C152.775 26.6933 152.508 27.8453 152.508 29.168C152.508 30.512 152.775 31.6853 153.308 32.688C153.842 33.6693 154.556 34.4267 155.452 34.96C156.348 35.472 157.34 35.728 158.428 35.728C159.516 35.728 160.508 35.472 161.404 34.96C162.322 34.4267 163.047 33.6693 163.58 32.688C164.114 31.6853 164.38 30.5227 164.38 29.2ZM190.889 38.224C188.819 38.224 186.931 37.744 185.225 36.784C183.518 35.8027 182.163 34.448 181.161 32.72C180.179 30.9707 179.689 29.008 179.689 26.832C179.689 24.656 180.179 22.704 181.161 20.976C182.163 19.2267 183.518 17.872 185.225 16.912C186.931 15.9307 188.819 15.44 190.889 15.44C192.979 15.44 194.878 15.9307 196.585 16.912C198.291 17.872 199.635 19.216 200.617 20.944C201.598 22.672 202.089 24.6347 202.089 26.832C202.089 29.0293 201.598 30.992 200.617 32.72C199.635 34.448 198.291 35.8027 196.585 36.784C194.878 37.744 192.979 38.224 190.889 38.224ZM190.889 35.696C192.446 35.696 193.843 35.3333 195.081 34.608C196.339 33.8827 197.321 32.848 198.025 31.504C198.75 30.16 199.113 28.6027 199.113 26.832C199.113 25.04 198.75 23.4827 198.025 22.16C197.321 20.816 196.35 19.7813 195.113 19.056C193.875 18.3307 192.467 17.968 190.889 17.968C189.31 17.968 187.902 18.3307 186.665 19.056C185.427 19.7813 184.446 20.816 183.721 22.16C183.017 23.4827 182.665 25.04 182.665 26.832C182.665 28.6027 183.017 30.16 183.721 31.504C184.446 32.848 185.427 33.8827 186.665 34.608C187.923 35.3333 189.331 35.696 190.889 35.696ZM208.845 14.32V38H205.933V14.32H208.845ZM215.312 17.616C214.757 17.616 214.288 17.424 213.904 17.04C213.52 16.656 213.328 16.1867 213.328 15.632C213.328 15.0773 213.52 14.608 213.904 14.224C214.288 13.84 214.757 13.648 215.312 13.648C215.845 13.648 216.293 13.84 216.656 14.224C217.04 14.608 217.232 15.0773 217.232 15.632C217.232 16.1867 217.04 16.656 216.656 17.04C216.293 17.424 215.845 17.616 215.312 17.616ZM216.72 20.464V38H213.808V20.464H216.72ZM228.211 35.312L233.651 20.464H236.755L229.875 38H226.483L219.603 20.464H222.739L228.211 35.312ZM255.62 28.56C255.62 29.1147 255.588 29.7013 255.524 30.32H241.508C241.615 32.048 242.202 33.4027 243.268 34.384C244.356 35.344 245.668 35.824 247.204 35.824C248.463 35.824 249.508 35.536 250.34 34.96C251.194 34.3627 251.791 33.5733 252.132 32.592H255.268C254.799 34.2773 253.86 35.6533 252.452 36.72C251.044 37.7653 249.295 38.288 247.204 38.288C245.54 38.288 244.047 37.9147 242.724 37.168C241.423 36.4213 240.399 35.3653 239.652 34C238.906 32.6133 238.532 31.0133 238.532 29.2C238.532 27.3867 238.895 25.7973 239.62 24.432C240.346 23.0667 241.359 22.0213 242.66 21.296C243.983 20.5493 245.498 20.176 247.204 20.176C248.868 20.176 250.34 20.5387 251.62 21.264C252.9 21.9893 253.882 22.992 254.564 24.272C255.268 25.5307 255.62 26.96 255.62 28.56ZM252.612 27.952C252.612 26.8427 252.367 25.8933 251.876 25.104C251.386 24.2933 250.714 23.6853 249.86 23.28C249.028 22.8533 248.1 22.64 247.076 22.64C245.604 22.64 244.346 23.1093 243.3 24.048C242.276 24.9867 241.69 26.288 241.54 27.952H252.612ZM260.968 17.616C260.413 17.616 259.944 17.424 259.56 17.04C259.176 16.656 258.984 16.1867 258.984 15.632C258.984 15.0773 259.176 14.608 259.56 14.224C259.944 13.84 260.413 13.648 260.968 13.648C261.501 13.648 261.949 13.84 262.312 14.224C262.696 14.608 262.888 15.0773 262.888 15.632C262.888 16.1867 262.696 16.656 262.312 17.04C261.949 17.424 261.501 17.616 260.968 17.616ZM262.376 20.464V38H259.464V20.464H262.376ZM270.251 23.312C270.763 22.3093 271.488 21.5307 272.427 20.976C273.387 20.4213 274.55 20.144 275.915 20.144V23.152H275.147C271.883 23.152 270.251 24.9227 270.251 28.464V38H267.339V20.464H270.251V23.312ZM278.189 29.168C278.189 27.376 278.551 25.808 279.277 24.464C280.002 23.0987 280.994 22.0427 282.253 21.296C283.533 20.5493 284.951 20.176 286.509 20.176C288.045 20.176 289.378 20.5067 290.509 21.168C291.639 21.8293 292.482 22.6613 293.037 23.664V20.464H295.981V38H293.037V34.736C292.461 35.76 291.597 36.6133 290.445 37.296C289.314 37.9573 287.991 38.288 286.477 38.288C284.919 38.288 283.511 37.904 282.253 37.136C280.994 36.368 280.002 35.2907 279.277 33.904C278.551 32.5173 278.189 30.9387 278.189 29.168ZM293.037 29.2C293.037 27.8773 292.77 26.7253 292.237 25.744C291.703 24.7627 290.978 24.016 290.061 23.504C289.165 22.9707 288.173 22.704 287.085 22.704C285.997 22.704 285.005 22.96 284.109 23.472C283.213 23.984 282.498 24.7307 281.965 25.712C281.431 26.6933 281.165 27.8453 281.165 29.168C281.165 30.512 281.431 31.6853 281.965 32.688C282.498 33.6693 283.213 34.4267 284.109 34.96C285.005 35.472 285.997 35.728 287.085 35.728C288.173 35.728 289.165 35.472 290.061 34.96C290.978 34.4267 291.703 33.6693 292.237 32.688C292.77 31.6853 293.037 30.5227 293.037 29.2Z" fill="#A489D1"/>
<circle cx="25" cy="28" r="25" fill="#A489D1"/>
<path d="M46.0469 41.7891C45.8125 42.2422 45.5156 42.6797 45.1562 43.1016C44.8125 43.5234 44.4141 43.8984 43.9609 44.2266C43.5234 44.5391 43.0547 44.7969 42.5547 45C42.0547 45.1875 41.5391 45.2812 41.0078 45.2812C40.1484 45.2812 39.3906 45.1172 38.7344 44.7891C38.0781 44.4609 37.5312 44.0234 37.0938 43.4766C36.6562 42.9141 36.3281 42.2734 36.1094 41.5547C35.8906 40.8359 35.7812 40.0781 35.7812 39.2812V15.9609C35.7812 15.7266 35.75 15.4922 35.6875 15.2578C35.6406 15.0078 35.5547 14.7891 35.4297 14.6016C35.3047 14.3984 35.1406 14.2422 34.9375 14.1328C34.75 14.0078 34.5156 13.9453 34.2344 13.9453C33.7656 13.9453 33.2578 14.1406 32.7109 14.5312C32.1797 14.9062 31.6406 15.4531 31.0938 16.1719C30.5625 16.875 30.0469 17.7266 29.5469 18.7266C29.0469 19.7266 28.6016 20.8359 28.2109 22.0547C27.8359 23.2734 27.5312 24.5938 27.2969 26.0156C27.0625 27.4219 26.9453 28.8984 26.9453 30.4453V43.9922L22.0938 45.7266V15.9609C22.0938 15.7266 22.0625 15.4922 22 15.2578C21.9531 15.0078 21.8672 14.7891 21.7422 14.6016C21.6172 14.3984 21.4609 14.2422 21.2734 14.1328C21.0859 14.0078 20.8516 13.9453 20.5703 13.9453C20.1016 13.9453 19.5938 14.2344 19.0469 14.8125C18.5156 15.375 17.9766 16.1328 17.4297 17.0859C16.8984 18.0234 16.375 19.1094 15.8594 20.3438C15.3594 21.5781 14.9141 22.8594 14.5234 24.1875C14.1484 25.5 13.8438 26.8125 13.6094 28.125C13.375 29.4375 13.2578 30.6484 13.2578 31.7578V43.9922L8.40625 45.7266V12.1641L13.2578 10.4297V23.6484C13.8672 21.0234 14.5547 18.8672 15.3203 17.1797C16.1016 15.4922 16.9062 14.1562 17.7344 13.1719C18.5781 12.1875 19.4375 11.5078 20.3125 11.1328C21.1875 10.7422 22.0391 10.5469 22.8672 10.5469C23.8047 10.5469 24.5469 10.6641 25.0938 10.8984C25.6406 11.1172 26.0547 11.4297 26.3359 11.8359C26.6172 12.2266 26.7891 12.6953 26.8516 13.2422C26.9297 13.7734 26.9609 14.3594 26.9453 15V21.9609C27.4141 20.0234 28.0234 18.3438 28.7734 16.9219C29.5234 15.4844 30.3359 14.2969 31.2109 13.3594C32.0859 12.4062 32.9844 11.7031 33.9062 11.25C34.8438 10.7812 35.7266 10.5469 36.5547 10.5469C37.8672 10.5469 38.875 10.8281 39.5781 11.3906C40.2812 11.9375 40.6328 12.8672 40.6328 14.1797V40.0547C40.6328 40.3672 40.6641 40.6797 40.7266 40.9922C40.7891 41.3047 40.8906 41.5859 41.0312 41.8359C41.1875 42.0703 41.3906 42.2656 41.6406 42.4219C41.8906 42.5781 42.1953 42.6562 42.5547 42.6562C43.0859 42.6562 43.5938 42.5 44.0781 42.1875C44.5625 41.875 44.9609 41.5156 45.2734 41.1094L46.0469 41.7891Z" fill="#171025"/>
</svg>
